<?xml version="1.0" encoding="UTF-8" standalone="no"?>
<!DOCTYPE svg PUBLIC "-//W3C//DTD SVG 1.1//EN" "http://www.w3.org/Graphics/SVG/1.1/DTD/svg11.dtd">
<svg width="195" height="37" viewBox="0 0 195 37" version="1.1" xmlns="http://www.w3.org/2000/svg" xmlns:xlink="http://www.w3.org/1999/xlink" xml:space="preserve" xmlns:serif="http://www.serif.com/" style="fill-rule:evenodd;clip-rule:evenodd;stroke-linejoin:round;stroke-miterlimit:2;">
    <g transform="matrix(0.350093,0,0,0.350093,-94.7301,-91.4247)">
        <g transform="matrix(0.803633,0,0,1.31005,54.8685,-59.0741)">
            <g>
                <g transform="matrix(162.151,0,0,99.4699,323,321.613)">
                    <path d="M0.058,-0L0.058,-0.73L0.213,-0.73L0.213,-0.479C0.233,-0.495 0.255,-0.507 0.279,-0.514C0.303,-0.521 0.327,-0.525 0.351,-0.525C0.398,-0.525 0.437,-0.515 0.47,-0.495C0.502,-0.475 0.526,-0.448 0.543,-0.413C0.559,-0.378 0.567,-0.339 0.567,-0.295L0.567,-0L0.412,-0L0.412,-0.289C0.412,-0.308 0.408,-0.326 0.399,-0.341C0.39,-0.356 0.378,-0.368 0.363,-0.377C0.347,-0.386 0.331,-0.39 0.313,-0.39C0.295,-0.39 0.278,-0.386 0.263,-0.377C0.248,-0.368 0.236,-0.357 0.227,-0.342C0.218,-0.327 0.213,-0.311 0.213,-0.292L0.213,-0L0.058,-0Z" style="fill:rgb(53,119,255);fill-rule:nonzero;"/>
                </g>
                <g transform="matrix(162.151,0,0,99.4699,502.988,321.613)">
                    <path d="M0.058,-0L0.058,-0.303C0.058,-0.345 0.068,-0.383 0.088,-0.417C0.107,-0.45 0.135,-0.477 0.172,-0.496C0.209,-0.515 0.252,-0.525 0.303,-0.525C0.328,-0.525 0.352,-0.522 0.373,-0.517C0.394,-0.511 0.414,-0.503 0.432,-0.494C0.449,-0.484 0.464,-0.472 0.477,-0.459L0.479,-0.459C0.492,-0.472 0.508,-0.484 0.526,-0.494C0.543,-0.503 0.563,-0.511 0.585,-0.517C0.606,-0.522 0.63,-0.525 0.655,-0.525C0.706,-0.525 0.749,-0.515 0.786,-0.496C0.823,-0.477 0.851,-0.45 0.871,-0.417C0.891,-0.383 0.901,-0.345 0.901,-0.303L0.901,-0L0.745,-0L0.745,-0.298C0.745,-0.315 0.741,-0.33 0.733,-0.344C0.724,-0.357 0.713,-0.368 0.699,-0.377C0.685,-0.386 0.669,-0.39 0.651,-0.39C0.633,-0.39 0.617,-0.386 0.603,-0.377C0.588,-0.368 0.577,-0.357 0.569,-0.344C0.561,-0.33 0.557,-0.315 0.557,-0.298L0.557,-0L0.402,-0L0.402,-0.298C0.402,-0.315 0.398,-0.33 0.39,-0.344C0.381,-0.357 0.37,-0.368 0.356,-0.377C0.341,-0.386 0.325,-0.39 0.307,-0.39C0.289,-0.39 0.273,-0.386 0.259,-0.377C0.244,-0.368 0.233,-0.357 0.225,-0.344C0.217,-0.33 0.213,-0.315 0.213,-0.298L0.213,-0L0.058,-0Z" style="fill:rgb(53,119,255);fill-rule:nonzero;"/>
                </g>
                <g transform="matrix(162.151,0,0,99.4699,647.14,321.613)">
                    <path d="M0.058,-0L0.058,-0.513L0.214,-0.513L0.214,-0L0.058,-0ZM0.136,-0.571C0.111,-0.571 0.09,-0.58 0.072,-0.598C0.054,-0.616 0.045,-0.637 0.045,-0.662C0.045,-0.687 0.054,-0.708 0.072,-0.727C0.09,-0.745 0.111,-0.754 0.136,-0.754C0.161,-0.754 0.182,-0.745 0.2,-0.727C0.218,-0.708 0.227,-0.687 0.227,-0.662C0.227,-0.637 0.218,-0.616 0.2,-0.598C0.182,-0.58 0.161,-0.571 0.136,-0.571Z" style="fill:rgb(53,119,255);fill-rule:nonzero;"/>
                </g>
                <g transform="matrix(162.151,0,0,99.4699,679.733,321.613)">
                    <path d="M0.058,-0L0.058,-0.295C0.058,-0.338 0.068,-0.376 0.089,-0.411C0.11,-0.446 0.139,-0.473 0.178,-0.494C0.216,-0.515 0.261,-0.525 0.314,-0.525C0.367,-0.525 0.413,-0.515 0.451,-0.494C0.488,-0.473 0.517,-0.446 0.537,-0.411C0.557,-0.376 0.567,-0.338 0.567,-0.295L0.567,-0L0.412,-0L0.412,-0.291C0.412,-0.309 0.408,-0.326 0.399,-0.341C0.39,-0.356 0.379,-0.368 0.364,-0.377C0.349,-0.386 0.332,-0.39 0.313,-0.39C0.294,-0.39 0.277,-0.386 0.262,-0.377C0.247,-0.368 0.235,-0.356 0.226,-0.341C0.217,-0.326 0.213,-0.309 0.213,-0.291L0.213,-0L0.058,-0Z" style="fill:rgb(53,119,255);fill-rule:nonzero;"/>
                </g>
                <g transform="matrix(162.151,0,0,99.4699,769.889,321.613)">
                    <path d="M0.058,-0L0.058,-0.513L0.214,-0.513L0.214,-0L0.058,-0ZM0.136,-0.571C0.111,-0.571 0.09,-0.58 0.072,-0.598C0.054,-0.616 0.045,-0.637 0.045,-0.662C0.045,-0.687 0.054,-0.708 0.072,-0.727C0.09,-0.745 0.111,-0.754 0.136,-0.754C0.161,-0.754 0.182,-0.745 0.2,-0.727C0.218,-0.708 0.227,-0.687 0.227,-0.662C0.227,-0.637 0.218,-0.616 0.2,-0.598C0.182,-0.58 0.161,-0.571 0.136,-0.571Z" style="fill:rgb(53,119,255);fill-rule:nonzero;"/>
                </g>
                <g transform="matrix(162.151,0,0,99.4699,802.481,321.613)">
                    <path d="M0.309,0.012C0.364,0.012 0.413,0.001 0.454,-0.022C0.495,-0.045 0.527,-0.077 0.55,-0.119C0.573,-0.161 0.584,-0.21 0.584,-0.266L0.584,-0.73L0.429,-0.73L0.429,-0.457L0.426,-0.457C0.416,-0.471 0.404,-0.483 0.389,-0.494C0.374,-0.504 0.357,-0.512 0.339,-0.517C0.32,-0.522 0.301,-0.525 0.28,-0.525C0.231,-0.525 0.189,-0.514 0.152,-0.492C0.115,-0.47 0.087,-0.44 0.066,-0.401C0.045,-0.362 0.034,-0.317 0.034,-0.265C0.034,-0.225 0.04,-0.188 0.053,-0.154C0.066,-0.12 0.084,-0.091 0.108,-0.066C0.131,-0.041 0.16,-0.021 0.194,-0.008C0.227,0.005 0.266,0.012 0.309,0.012ZM0.309,-0.122C0.285,-0.122 0.264,-0.128 0.247,-0.14C0.23,-0.151 0.216,-0.167 0.207,-0.188C0.197,-0.208 0.192,-0.231 0.192,-0.256C0.192,-0.281 0.197,-0.304 0.207,-0.324C0.216,-0.344 0.23,-0.36 0.247,-0.372C0.264,-0.383 0.285,-0.389 0.309,-0.389C0.333,-0.389 0.354,-0.383 0.372,-0.372C0.389,-0.36 0.403,-0.344 0.412,-0.324C0.421,-0.304 0.426,-0.281 0.426,-0.256C0.426,-0.231 0.421,-0.208 0.412,-0.188C0.403,-0.167 0.389,-0.151 0.372,-0.14C0.354,-0.128 0.333,-0.122 0.309,-0.122Z" style="fill:rgb(53,119,255);fill-rule:nonzero;"/>
                </g>
            </g>
        </g>
        <g transform="matrix(0.0236059,0,0,0.0236059,392,293)">
            <g>
                <circle cx="1500" cy="1500" r="1500" style="fill:none;"/>
                <clipPath id="_clip1">
                    <circle cx="1500" cy="1500" r="1500"/>
                </clipPath>
                <g clip-path="url(#_clip1)">
                    <circle cx="1500" cy="1500" r="1500" style="fill:url(#_Linear2);"/>
                    <path d="M1500,0C2327.87,0 2591.42,773.982 2358.77,1500C2043.87,2482.67 1269.74,2885.6 664.726,2643.59C291.166,2494.16 260.336,2379.37 136.728,2126.13C27.301,1901.95 -1.86,1554.81 0,1500C28.081,672.604 672.127,0 1500,0Z" style="fill:url(#_Linear3);"/>
                    <path d="M1500,0C1926.16,0 1647.04,705.844 1148.74,1191.55C679.036,1649.39 0,1901.71 0,1500C0,672.127 672.127,0 1500,0Z" style="fill:url(#_Linear4);"/>
                    <g transform="matrix(1.54276,0,0,1.24694,-817.693,-331.578)">
                        <g>
                            <g>
                                <g>
                                    <g transform="matrix(2752.58,0,0,2437.86,119.442,2325.43)">
                                        <path d="M0.641,-0.712C0.687,-0.648 0.695,-0.57 0.641,-0.516C0.558,-0.435 0.448,-0.435 0.366,-0.517C0.312,-0.57 0.324,-0.647 0.371,-0.712C0.429,-0.794 0.58,-0.798 0.641,-0.712ZM0.603,-0.616C0.603,-0.712 0.408,-0.712 0.408,-0.616C0.408,-0.516 0.603,-0.516 0.603,-0.616Z" style="fill:white;fill-rule:nonzero;"/>
                                    </g>
                                    <g transform="matrix(2752.58,0,0,2437.86,104.588,2253.71)">
                                        <path d="M0.719,-0.105C0.666,-0.105 0.704,-0.238 0.641,-0.278C0.579,-0.318 0.433,-0.318 0.371,-0.278C0.308,-0.238 0.338,-0.105 0.286,-0.105C0.238,-0.105 0.227,-0.308 0.286,-0.355C0.371,-0.423 0.641,-0.418 0.719,-0.355C0.787,-0.301 0.774,-0.105 0.719,-0.105Z" style="fill:white;fill-rule:nonzero;"/>
                                    </g>
                                    <g transform="matrix(2752.58,0,0,2437.86,119.963,2150.28)">
                                        <path d="M0.508,-0.245C0.641,-0.245 0.508,-0.009 0.319,0.069C0.3,0.077 0.223,-0.003 0.244,-0.01C0.526,-0.105 0.371,-0.245 0.508,-0.245ZM0.719,0.069C0.694,0.106 0.493,-0.009 0.528,-0.059C0.567,-0.116 0.782,-0.02 0.719,0.069Z" style="fill:white;fill-rule:nonzero;"/>
                                    </g>
                                </g>
                            </g>
                        </g>
                    </g>
                </g>
            </g>
        </g>
    </g>
    <defs>
        <linearGradient id="_Linear2" x1="0" y1="0" x2="1" y2="0" gradientUnits="userSpaceOnUse" gradientTransform="matrix(3000,0,0,3000,2.27374e-13,1500)"><stop offset="0" style="stop-color:rgb(0,45,217);stop-opacity:1"/><stop offset="1" style="stop-color:rgb(0,178,171);stop-opacity:1"/></linearGradient>
        <linearGradient id="_Linear3" x1="0" y1="0" x2="1" y2="0" gradientUnits="userSpaceOnUse" gradientTransform="matrix(3000,0,0,3000,2.27374e-13,1500)"><stop offset="0" style="stop-color:rgb(0,150,217);stop-opacity:1"/><stop offset="1" style="stop-color:rgb(0,193,152);stop-opacity:1"/></linearGradient>
        <linearGradient id="_Linear4" x1="0" y1="0" x2="1" y2="0" gradientUnits="userSpaceOnUse" gradientTransform="matrix(3000,0,0,3000,2.27374e-13,1500)"><stop offset="0" style="stop-color:rgb(52,130,192);stop-opacity:1"/><stop offset="0.45" style="stop-color:rgb(150,190,222);stop-opacity:1"/><stop offset="0.83" style="stop-color:rgb(225,237,246);stop-opacity:1"/><stop offset="1" style="stop-color:white;stop-opacity:1"/></linearGradient>
    </defs>
</svg>
